<?xml version="1.0" encoding="UTF-8"?> <svg xmlns="http://www.w3.org/2000/svg" viewBox="0 0 639.06 162.26"><defs><style>.cls-1{fill:#0a2240;}.cls-2{fill:#3bbfad;}</style></defs><g id="Capa_2" data-name="Capa 2"><g id="Capa_1-2" data-name="Capa 1"><path class="cls-1" d="M174.92,107.92l-.13.33-.36,0-5.57-.36c-1.87-.11-3.44-.17-4.65-.17-1.81,0-3.68.06-5.58.17s-3.53.24-4.8.36l-.24,0-.16-.17a2.83,2.83,0,0,1-.5-2c0-.52,0-1.74.85-1.74a6.25,6.25,0,0,0,1.71-.33,12.79,12.79,0,0,0,2.08-.86c.75-.39.86-.58.86-.59a26.92,26.92,0,0,0,.51-3.11,30.81,30.81,0,0,0,.17-3.33v-37a30.5,30.5,0,0,0-.52-6c-.07-.29-.61-1-3.93-1h-.88c-.38,0-1-.2-1-1.57,0-.47,0-1.92,1-1.92a51.41,51.41,0,0,0,8.66-1.49c2.6-.71,4.35-1.24,5.21-1.58l.8-.31h.18a1.49,1.49,0,0,1,1.15.74,3.38,3.38,0,0,1,.57,1.06l0,.14,0,.14a27.23,27.23,0,0,0-1,8.2V94.66a36.28,36.28,0,0,0,.59,7.81,2.91,2.91,0,0,0,.92.64,10.57,10.57,0,0,0,2,.85,6,6,0,0,0,1.44.34c.75,0,.79,1.08.81,1.72A5.1,5.1,0,0,1,174.92,107.92Z"></path><path class="cls-1" d="M201.17,107.92l-.14.33-.36,0-5.56-.36c-1.88-.11-3.44-.17-4.66-.17-1.8,0-3.68.06-5.58.17s-3.53.24-4.8.36l-.23,0-.17-.17a2.88,2.88,0,0,1-.5-2c0-.52,0-1.74.86-1.74a6.13,6.13,0,0,0,1.7-.33,12.1,12.1,0,0,0,2.08-.86c.75-.39.86-.58.87-.59a29.27,29.27,0,0,0,.51-3.11c.11-1.1.17-2.22.17-3.33V81.77c0-2.65-.43-4.45-1.28-5.35a3.44,3.44,0,0,0-1.77-1.2,11.17,11.17,0,0,0-2-.43c-.55-.05-1.38-.13-1.38-.76,0-2,.15-3.17.94-3.17,1.79-.23,3.87-.57,6.13-1s4.32-.88,6.13-1.29l2.94-.72c1.12,0,1.12,1.71,1.12,2.28a26.3,26.3,0,0,1-.32,3.4,30.55,30.55,0,0,0-.3,4.24v16.9a36.44,36.44,0,0,0,.58,7.81,3.22,3.22,0,0,0,.93.64,10.47,10.47,0,0,0,2,.85,6.1,6.1,0,0,0,1.45.34c.74,0,.78,1.08.81,1.72A5.33,5.33,0,0,1,201.17,107.92Z"></path><path class="cls-1" d="M200,50.38a4.6,4.6,0,0,1-1.36,2.67,30.89,30.89,0,0,1-3.19,3.21c-1.27,1.14-2.59,2.23-3.91,3.23S189,61.33,188,62c-1.43.89-1.92,1-2.21,1a1.7,1.7,0,0,1-1.25-.65,1.92,1.92,0,0,1-.57-1.27c0-.22.07-.53,1-2,.59-.94,1.34-2.08,2.22-3.39s1.83-2.65,2.75-3.93,1.77-2.4,2.49-3.31c.61-.61,1.71-.89,3.4-.89a4.57,4.57,0,0,1,3.1.92A2.56,2.56,0,0,1,200,50.38Z"></path><path class="cls-1" d="M253,108l-.16.41-.43-.1a18.94,18.94,0,0,0-2.34-.21l-4.5-.27c-1.6-.09-2.88-.13-3.81-.13s-2.16,0-3.64.13l-4.24.27c-1.31.09-2.14.16-2.47.21l-.25,0-.19-.19a2.9,2.9,0,0,1-.49-2c0-.59,0-1.83.85-1.83a7.1,7.1,0,0,0,1.72-.29,12.55,12.55,0,0,0,2.08-.77c.73-.36.85-.54.85-.55a20.73,20.73,0,0,0,.51-2.84,33.91,33.91,0,0,0,.17-3.5V87.9c0-4.79-.64-8.17-1.9-10s-3.17-2.72-5.91-2.72a7.68,7.68,0,0,0-4.65,1.46,3.86,3.86,0,0,0-1.92,2.93v15.3a36.17,36.17,0,0,0,.59,7.8,3,3,0,0,0,1,.59,11.51,11.51,0,0,0,2.21.77,7.58,7.58,0,0,0,1.56.3c.83,0,.87,1.19.89,1.77a5.35,5.35,0,0,1-.16,1.94l-.16.38-.41-.08c-.18,0-.75-.1-2.45-.21l-4.37-.27c-1.51-.09-2.75-.13-3.68-.13s-2.21,0-3.77.13l-4.46.27c-1.37.09-2.23.16-2.56.21l-.25,0-.18-.19a2.83,2.83,0,0,1-.5-2c0-.59,0-1.83.85-1.83a8.51,8.51,0,0,0,1.87-.3,14.1,14.1,0,0,0,2.3-.77,2.49,2.49,0,0,0,.93-.55,28.07,28.07,0,0,0,.59-6.33V81.86c0-2.54-.44-4.34-1.3-5.38a3.25,3.25,0,0,0-1.73-1.12c-.78-.2-1.46-.35-2-.44-.39-.06-1.31-.19-1.31-.89,0-2.36.28-2.94.75-3.13l.15,0c1.34-.11,3.33-.41,5.92-.88s5-1,7.3-1.58a9.53,9.53,0,0,1,1.76-.38c.45,0,.81.31,1.08.92a3.27,3.27,0,0,1,.3,1.18c-.12.89-.21,1.57-.27,2.1,0,.22,0,.42-.06.58a20.82,20.82,0,0,1,5.23-3.49,16,16,0,0,1,7-1.65c7.9,0,11.9,6.3,11.9,18.73v8.45a37.08,37.08,0,0,0,.58,7.8,3.45,3.45,0,0,0,1,.59,14.22,14.22,0,0,0,2.31.77,7.84,7.84,0,0,0,1.69.3c.75,0,.78,1.06.81,1.77A5.23,5.23,0,0,1,253,108Z"></path><path class="cls-1" d="M273.13,53.67a5.82,5.82,0,0,1-1.68,4.17,5.56,5.56,0,0,1-4.12,1.75,5.67,5.67,0,0,1-4.15-1.75,5.74,5.74,0,0,1-1.74-4.17,5.58,5.58,0,0,1,1.75-4.14,5.72,5.72,0,0,1,4.14-1.7,5.56,5.56,0,0,1,4.11,1.71A5.64,5.64,0,0,1,273.13,53.67Z"></path><path class="cls-1" d="M278.76,107.92l-.14.33-.36,0-5.57-.36c-1.87-.11-3.43-.17-4.65-.17-1.8,0-3.68.06-5.58.17s-3.53.24-4.8.36l-.24,0-.16-.17a2.83,2.83,0,0,1-.5-2c0-.52,0-1.74.85-1.74a6.18,6.18,0,0,0,1.71-.33,12.79,12.79,0,0,0,2.08-.86c.75-.39.86-.58.86-.59a25.24,25.24,0,0,0,.51-3.11,30.82,30.82,0,0,0,.18-3.33V81.77c0-2.65-.43-4.45-1.28-5.35a3.48,3.48,0,0,0-1.77-1.2,11.26,11.26,0,0,0-2-.43c-.54-.05-1.37-.13-1.37-.76,0-2,.15-3.17.94-3.17,1.79-.23,3.87-.57,6.13-1s4.32-.88,6.13-1.29l2.94-.72c1.11,0,1.11,1.71,1.11,2.28a25.92,25.92,0,0,1-.31,3.4,30.57,30.57,0,0,0-.31,4.24v16.9a36.28,36.28,0,0,0,.59,7.81,3.07,3.07,0,0,0,.92.64,10.57,10.57,0,0,0,2,.85,6.19,6.19,0,0,0,1.44.34c.75,0,.79,1,.81,1.72A5.39,5.39,0,0,1,278.76,107.92Z"></path><path class="cls-1" d="M316.26,99.11c0,1.27-.73,2.62-2.22,4.13a18.91,18.91,0,0,1-5.45,3.7,16.38,16.38,0,0,1-7,1.56,18.71,18.71,0,0,1-10-2.74,20.23,20.23,0,0,1-7.07-7.39,20.65,20.65,0,0,1-2.63-10.29,21,21,0,0,1,2.5-10.15,19.86,19.86,0,0,1,6.93-7.43,18.67,18.67,0,0,1,10.25-2.84,21.83,21.83,0,0,1,8.55,1.6,14.62,14.62,0,0,1,5.44,3.56l.12.14v.18a11.57,11.57,0,0,1-1.07,5.25,3.73,3.73,0,0,1-3.5,2.27,4.44,4.44,0,0,1-3-1A10.36,10.36,0,0,1,306,76.57c-1.23-2.57-3-3.82-5.48-3.82s-4.2,1.19-5.62,3.62a18.72,18.72,0,0,0-2.19,9.49c0,5.19,1.06,9.07,3.15,11.55a10,10,0,0,0,7.93,3.69,17,17,0,0,0,3.69-.34c1-.24,1.95-.5,2.88-.8a9.18,9.18,0,0,0,1.65-.88l2.82-1.81.24-.16.26.13a1.79,1.79,0,0,1,.64.72A2.19,2.19,0,0,1,316.26,99.11Z"></path><path class="cls-1" d="M356.58,100.48l-.2,0-.17.11a5,5,0,0,1-2.72,1.07c-1,0-2.42-.33-2.42-3.15V81c0-4.8-1-8.25-2.87-10.26s-4.8-3-8.58-3a21.21,21.21,0,0,0-6.52,1,24.43,24.43,0,0,0-5.9,2.77,17.14,17.14,0,0,0-4.33,3.89,7.48,7.48,0,0,0-1.69,4.53V80l.08.12c1,1.58,2.66,2.37,5,2.37a6,6,0,0,0,3.28-.92,3.37,3.37,0,0,0,1.55-3,6.26,6.26,0,0,1,1.38-4.34,4.83,4.83,0,0,1,3.78-1.48,4.1,4.1,0,0,1,3.41,1.59A7.19,7.19,0,0,1,341,78.92v4.89a1,1,0,0,1-.5,1l-2.91.88c-1.38.41-3.11.95-5.21,1.61l-1.89.76a24.83,24.83,0,0,0-2.29,1,15.74,15.74,0,0,0-5.52,4.23A9.51,9.51,0,0,0,323.6,106a11.08,11.08,0,0,0,7.54,2.57,12.61,12.61,0,0,0,5-1,24.5,24.5,0,0,0,4.18-2.24l1.14-.89L342,104a8.26,8.26,0,0,0,2.45,2.85c2.72,2.12,5.64,2,8.75.41a22.53,22.53,0,0,0,3.62-2.28l.13-.15a6.16,6.16,0,0,0,.59-2.91C357.53,100.81,356.93,100.54,356.58,100.48Zm-20.94,1.33a4.54,4.54,0,0,1-3.28-1.2,5.09,5.09,0,0,1-1.26-3.82,3.75,3.75,0,0,1,1.4-3.16A16.64,16.64,0,0,1,336,91.57l5-1.72v8.37a3,3,0,0,1-1.52,2.44A6.4,6.4,0,0,1,335.64,101.81Z"></path><path class="cls-1" d="M408.72,107.64q-10.61,0-16.7-6.45t-6.1-20.76V61.05q0-5.61-.71-7.47c-.12-.36-.54-.68-1.28-1a17.47,17.47,0,0,0-2.38-.76,9.62,9.62,0,0,0-2-.31c-.24,0-.36-.44-.36-1.33s.09-1.43.27-1.6l11.75.53q1.68,0,11.31-.53c.06.23.1.47.14.71s0,.47,0,.71c0,1-.12,1.51-.35,1.51a10.8,10.8,0,0,0-1.9.31,17.45,17.45,0,0,0-2.52.76c-.77.3-1.18.62-1.24,1a19.86,19.86,0,0,0-.53,3.29q-.18,2-.18,4.53V81.85q0,9.16,3.94,14.63A12.67,12.67,0,0,0,410.84,102a14.08,14.08,0,0,0,10.91-4.49q4.11-4.48,4.11-14.89V60.87q0-5.43-.88-7.12a3.77,3.77,0,0,0-1.72-1.06,21.93,21.93,0,0,0-2.88-.89,10.66,10.66,0,0,0-2.29-.36c-.24,0-.37-.41-.4-1.24a2.86,2.86,0,0,1,.22-1.6c3.18.23,5.7.4,7.55.49s3.05.13,3.58.13q1.15,0,2.61-.09c1-.06,2.08-.15,3.31-.27,2.42-.17,3.92-.26,4.51-.26a6.38,6.38,0,0,1,.13.66,5.36,5.36,0,0,1,0,.76c0,.95-.12,1.42-.36,1.42a12.86,12.86,0,0,0-2.29.31,18.88,18.88,0,0,0-2.92.85,3.86,3.86,0,0,0-1.94,1.33,20.82,20.82,0,0,0-1,7.38v20.9q0,13.88-6.45,19.83a18.9,18.9,0,0,1-7,4.27A27.84,27.84,0,0,1,408.72,107.64Z"></path><path class="cls-1" d="M408.72,108.14c-7.18,0-12.92-2.22-17.06-6.6s-6.24-11.48-6.24-21.11V61.05c0-3.66-.23-6.11-.67-7.3,0-.09-.18-.36-1-.69a17.56,17.56,0,0,0-2.32-.73,8.69,8.69,0,0,0-1.87-.3c-.85,0-.85-1.24-.85-1.83,0-1.1.11-1.66.41-2l.15-.15,12,.54c1.07,0,4.87-.18,11.27-.53l.41,0,.1.41a6.58,6.58,0,0,1,.19,1.54c0,.7,0,2-.85,2a9.24,9.24,0,0,0-1.79.3,18.23,18.23,0,0,0-2.45.73c-.88.34-.93.59-.93.6a20.31,20.31,0,0,0-.52,3.25c-.12,1.27-.18,2.78-.18,4.49V81.85c0,6,1.29,10.8,3.84,14.34a12.28,12.28,0,0,0,10.51,5.26,13.61,13.61,0,0,0,10.54-4.33c2.64-2.88,4-7.78,4-14.55V60.87c0-3.52-.27-5.83-.82-6.88a3.5,3.5,0,0,0-1.47-.84,22.91,22.91,0,0,0-2.8-.87,11,11,0,0,0-2.18-.34c-.84,0-.88-1.21-.9-1.73a3.07,3.07,0,0,1,.32-1.91l.16-.22.28,0c3.12.23,5.66.4,7.54.49s3,.13,3.55.13c.76,0,1.63,0,2.58-.09s2.07-.14,3.3-.26c2.46-.18,3.94-.27,4.55-.27h.39l.1.38c.06.25.11.49.14.71a6.48,6.48,0,0,1,0,.83c0,.62,0,1.92-.86,1.92a11.81,11.81,0,0,0-2.19.3,19,19,0,0,0-2.84.82,3.49,3.49,0,0,0-1.71,1.15,21.08,21.08,0,0,0-.89,7.1v20.9c0,9.35-2.22,16.15-6.61,20.2a19.54,19.54,0,0,1-7.2,4.37A28.55,28.55,0,0,1,408.72,108.14Zm-29-57.1a10.28,10.28,0,0,1,1.89.32,16.88,16.88,0,0,1,2.46.78,2.44,2.44,0,0,1,1.57,1.28c.49,1.3.73,3.8.73,7.63V80.43c0,9.37,2,16.24,6,20.42s9.44,6.29,16.34,6.29a27.72,27.72,0,0,0,8.81-1.3,18.76,18.76,0,0,0,6.84-4.16c4.18-3.86,6.3-10.41,6.3-19.47V61.31a21.2,21.2,0,0,1,1-7.57,4.35,4.35,0,0,1,2.23-1.61,21.41,21.41,0,0,1,3-.87,13.93,13.93,0,0,1,2.19-.31,4.52,4.52,0,0,0,.07-.93,6.43,6.43,0,0,0,0-.69,2.23,2.23,0,0,0,0-.23c-.74,0-2.11.12-4.07.26-1.23.12-2.34.21-3.32.27s-1.86.09-2.64.09c-.53,0-1.71,0-3.6-.14s-4.24-.24-7.2-.46a4.59,4.59,0,0,0-.05,1.06,2.8,2.8,0,0,0,.09.77,12.27,12.27,0,0,1,2.22.36,24,24,0,0,1,2.94.91,4,4,0,0,1,1.95,1.26c.66,1.26,1,3.66,1,7.39v21.7c0,7-1.43,12.15-4.24,15.23a14.63,14.63,0,0,1-11.28,4.65,13.22,13.22,0,0,1-11.32-5.68c-2.67-3.71-4-8.73-4-14.92V61.4c0-1.74.05-3.28.17-4.58a21,21,0,0,1,.55-3.37c.11-.68.93-1.08,1.54-1.32a18.46,18.46,0,0,1,2.59-.77,11.84,11.84,0,0,1,1.79-.32,5.13,5.13,0,0,0,.07-1,4.73,4.73,0,0,0,0-.65,2.17,2.17,0,0,0,0-.25c-6.24.34-9.81.51-10.91.51l-11.44-.52a5.12,5.12,0,0,0-.08,1.09A3.8,3.8,0,0,0,379.77,51Z"></path><path class="cls-1" d="M444.68,107.82a2.67,2.67,0,0,1-.35-1.69c0-.89.12-1.33.35-1.33a9.43,9.43,0,0,0,2-.31,14.89,14.89,0,0,0,2.39-.8c.73-.33,1.13-.61,1.19-.85a27.85,27.85,0,0,0,.62-6.49V81.85q0-4.26-1.41-5.69a4.32,4.32,0,0,0-1.95-1.38,9.34,9.34,0,0,0-2.07-.48q-.93-.09-.93-.27c0-1.66.14-2.55.44-2.67a39.82,39.82,0,0,0,5.61-.84q3-.67,7.11-1.47c.89-.18,1.46-.31,1.73-.4a2.14,2.14,0,0,1,.48-.13c.24,0,.45.19.62.57a2.51,2.51,0,0,1,.27,1c-.36,2.49-.53,3.91-.53,4.26a16.28,16.28,0,0,1,4.33-4.31,9.65,9.65,0,0,1,5.56-1.91q4.86,0,7.25,2.93,0,7.56-4.24,7.56a5.51,5.51,0,0,1-3.45-1.78,5.73,5.73,0,0,0-3.8-1.77,4.32,4.32,0,0,0-3.18,1.33,8.6,8.6,0,0,0-2,3.29,12.43,12.43,0,0,0-.66,4V94.84a36.12,36.12,0,0,0,.62,8,2.75,2.75,0,0,0,1.24.85,13.69,13.69,0,0,0,2.29.8,9,9,0,0,0,1.77.31c.18,0,.28.43.31,1.29a10.13,10.13,0,0,1,0,1.73c-.3-.06-1.14-.13-2.52-.22l-4.42-.27c-1.56-.09-2.81-.13-3.76-.13s-2.21,0-3.8.13l-4.46.27C445.91,107.69,445,107.76,444.68,107.82Z"></path><path class="cls-1" d="M466.64,108.41l-.49-.1a23.35,23.35,0,0,0-2.45-.21l-4.42-.27c-1.54-.09-2.79-.13-3.73-.13s-2.2,0-3.77.13l-4.46.27c-1.36.08-2.22.16-2.55.21l-.26,0-.18-.19a2.88,2.88,0,0,1-.5-2c0-.59,0-1.83.85-1.83a8.34,8.34,0,0,0,1.87-.3,14.22,14.22,0,0,0,2.31-.77c.79-.35.92-.54.92-.55a27.49,27.49,0,0,0,.59-6.33V81.85c0-2.69-.43-4.49-1.27-5.34a3.85,3.85,0,0,0-1.75-1.25,8.6,8.6,0,0,0-2-.47c-.55-.05-1.38-.13-1.38-.76,0-2.36.27-2.94.75-3.13l.16,0a37.54,37.54,0,0,0,5.53-.83c2.05-.45,4.44-.94,7.13-1.47,1.06-.21,1.49-.33,1.66-.38a2,2,0,0,1,.64-.16c.31,0,.75.15,1.08.87a2.93,2.93,0,0,1,.31,1.23c-.16,1.09-.27,1.92-.35,2.54a18.18,18.18,0,0,1,3.36-3,10.14,10.14,0,0,1,5.85-2c3.39,0,6,1,7.64,3.12l.11.14v.17c0,5.35-1.6,8.06-4.74,8.06a5.86,5.86,0,0,1-3.78-1.91,5.33,5.33,0,0,0-3.47-1.64,3.78,3.78,0,0,0-2.82,1.18,7.82,7.82,0,0,0-1.87,3.1,11.76,11.76,0,0,0-.64,3.84V94.84a37,37,0,0,0,.58,7.8,3.33,3.33,0,0,0,1,.59,12.23,12.23,0,0,0,2.21.77,7.25,7.25,0,0,0,1.64.3c.75,0,.78,1.06.81,1.77a10.21,10.21,0,0,1-.05,1.84Zm-21.75-3.12a4.88,4.88,0,0,0-.06.84,3.87,3.87,0,0,0,.12,1.15c.46,0,1.21-.11,2.31-.18l4.47-.27c1.58-.09,2.87-.13,3.82-.13s2.23,0,3.79.13l4.42.27c1,.07,1.66.12,2,.16,0-.26,0-.62,0-1.16a5.9,5.9,0,0,0-.07-.82,9.85,9.85,0,0,1-1.63-.31,13.35,13.35,0,0,1-2.38-.83,2.94,2.94,0,0,1-1.48-1.08l0-.09a35.83,35.83,0,0,1-.64-8.13V83.72a12.87,12.87,0,0,1,.69-4.16,9,9,0,0,1,2.11-3.48,4.81,4.81,0,0,1,3.53-1.48A6.24,6.24,0,0,1,470,76.51a5.07,5.07,0,0,0,3.11,1.64c.92,0,3.69,0,3.74-6.88-1.49-1.73-3.75-2.61-6.75-2.61a9.21,9.21,0,0,0-5.28,1.82,16,16,0,0,0-4.2,4.18L459.74,76V74.38c0-.24.05-.95.53-4.33a2.28,2.28,0,0,0-.22-.75c-.12-.25-.2-.29-.2-.29a1.21,1.21,0,0,1-.29.11,16.55,16.55,0,0,1-1.79.42c-2.68.53-5.07,1-7.1,1.46a39.22,39.22,0,0,1-5.48.84,6.7,6.7,0,0,0-.18,1.9l.47.06a9.3,9.3,0,0,1,2.2.51,4.8,4.8,0,0,1,2.16,1.54c1,1,1.53,3,1.53,6v14.5a28.41,28.41,0,0,1-.63,6.61c-.11.42-.55.77-1.48,1.18a14,14,0,0,1-2.47.83A10.23,10.23,0,0,1,444.89,105.29Z"></path><path class="cls-1" d="M500.53,108.09a24,24,0,0,1-4.55-.36c-1.21-.24-2.27-.46-3.18-.67a13.36,13.36,0,0,0-2.87-.31,4.52,4.52,0,0,0-2.26.63,4,4,0,0,1-1.81.62,4.33,4.33,0,0,1-1.28-.54c-.68-.35-1-.65-1-.89a34.5,34.5,0,0,1,.44-3.91,49,49,0,0,0,.44-6.93V59.44a31.42,31.42,0,0,0-.53-6q-.36-1.42-4.6-1.42h-.79c-.36,0-.53-.48-.53-1.43s.17-1.42.53-1.42c1.82-.18,3.56-.41,5.21-.71s3-.59,4.16-.89c1.53-.47,2.76-.89,3.71-1.25a10.86,10.86,0,0,1,1.59-.53h.17a.93.93,0,0,1,.71.49,2.43,2.43,0,0,1,.44.93,29.76,29.76,0,0,0-.7,3.78,36,36,0,0,0-.27,4.58V69.85a2.53,2.53,0,0,0,.09.93c.06.09.21.11.44,0a16.21,16.21,0,0,1,3.58-1.78,12.63,12.63,0,0,1,4.46-.89A18.46,18.46,0,0,1,518.65,78a19.69,19.69,0,0,1,2.21,9A20.16,20.16,0,0,1,518,97.59a22.22,22.22,0,0,1-7.46,7.65A18.61,18.61,0,0,1,500.53,108.09Zm.89-4.27a7.49,7.49,0,0,0,6.93-4.18,20.49,20.49,0,0,0,2.34-10.14q0-7.65-2.73-12.09A8.65,8.65,0,0,0,500.18,73a6.82,6.82,0,0,0-4.77,1.69,5.24,5.24,0,0,0-1.86,4V97.5a5.35,5.35,0,0,0,2.34,4.72A9.62,9.62,0,0,0,501.42,103.82Z"></path><path class="cls-1" d="M500.53,108.59a24.93,24.93,0,0,1-4.64-.37c-1.22-.24-2.28-.46-3.2-.67a12.35,12.35,0,0,0-2.76-.3,4.08,4.08,0,0,0-2,.56,4.44,4.44,0,0,1-2.06.69,3.69,3.69,0,0,1-1.51-.59c-.9-.48-1.28-.87-1.28-1.34a35.11,35.11,0,0,1,.44-4,48,48,0,0,0,.44-6.86V59.44a31.19,31.19,0,0,0-.52-5.94c-.07-.3-.63-1-4.11-1h-.79c-1,0-1-1.44-1-1.92s0-1.92,1-1.92c1.78-.18,3.52-.41,5.12-.7s3-.59,4.12-.88c1.49-.47,2.73-.88,3.66-1.23a6.21,6.21,0,0,1,1.77-.57h.17a1.43,1.43,0,0,1,1.12.7,3,3,0,0,1,.52,1.12l0,.12,0,.11a29.48,29.48,0,0,0-.7,3.72,36.69,36.69,0,0,0-.26,4.51V69.85c0,.16,0,.29,0,.39a17.92,17.92,0,0,1,3.42-1.66,13.23,13.23,0,0,1,4.64-.92,18.56,18.56,0,0,1,10.17,2.84,18.26,18.26,0,0,1,6.8,7.31,20.24,20.24,0,0,1,2.27,9.2,20.76,20.76,0,0,1-3,10.84,22.94,22.94,0,0,1-7.63,7.82A19.24,19.24,0,0,1,500.53,108.59Zm-10.6-2.34a13.21,13.21,0,0,1,3,.33c.91.21,2,.43,3.17.66a23.78,23.78,0,0,0,4.45.35,18.29,18.29,0,0,0,9.73-2.77,22.06,22.06,0,0,0,7.3-7.48A19.85,19.85,0,0,0,520.36,87a19.21,19.21,0,0,0-2.16-8.75,17.36,17.36,0,0,0-6.44-6.92,17.65,17.65,0,0,0-9.64-2.68,12.12,12.12,0,0,0-4.28.86,15.93,15.93,0,0,0-3.47,1.71l-.17.08c-.57.15-.85-.06-1-.26s-.17-.4-.17-1.2V55.53a36.94,36.94,0,0,1,.27-4.64,32.29,32.29,0,0,1,.69-3.72,2.3,2.3,0,0,0-.33-.64c-.17-.23-.29-.28-.31-.28h-.17s-.26.06-1.42.5c-.94.36-2.2.78-3.74,1.26-1.14.3-2.55.6-4.21.9s-3.37.53-5.22.71a2.49,2.49,0,0,0-.11.93,2.53,2.53,0,0,0,.11.93h.71c3.16,0,4.78.57,5.08,1.8a31.2,31.2,0,0,1,.55,6.16V95.73a48.52,48.52,0,0,1-.45,7,36.18,36.18,0,0,0-.44,3.83s.15.15.75.46a4.54,4.54,0,0,0,1.07.48,3.47,3.47,0,0,0,1.55-.56A5,5,0,0,1,489.93,106.25Zm11.49-1.93a10.09,10.09,0,0,1-5.81-1.69,5.84,5.84,0,0,1-2.56-5.13V78.65a5.74,5.74,0,0,1,2-4.37,7.33,7.33,0,0,1,5.11-1.82,9.16,9.16,0,0,1,8.2,4.69c1.87,3,2.81,7.19,2.81,12.35a21.1,21.1,0,0,1-2.4,10.38A8,8,0,0,1,501.42,104.32Zm-1.24-30.86A6.35,6.35,0,0,0,495.74,75a4.73,4.73,0,0,0-1.69,3.63V97.5a4.87,4.87,0,0,0,2.12,4.31,9.16,9.16,0,0,0,5.25,1.51,7,7,0,0,0,6.5-3.92,20.1,20.1,0,0,0,2.28-9.9c0-5-.9-9-2.67-11.83A8.12,8.12,0,0,0,500.18,73.46Z"></path><path class="cls-1" d="M526,107.73a2.67,2.67,0,0,1-.35-1.69c0-.83.12-1.24.35-1.24a6.61,6.61,0,0,0,1.86-.36,12.55,12.55,0,0,0,2.16-.89c.68-.35,1-.65,1.11-.89a27.38,27.38,0,0,0,.53-3.2,31.74,31.74,0,0,0,.17-3.38V81.77q0-4.18-1.41-5.7a4,4,0,0,0-2-1.33,11,11,0,0,0-2.12-.44q-.93-.09-.93-.27,0-2.67.45-2.67,2.82-.36,6.23-1t6.14-1.29l2.83-.71c.41,0,.61.59.61,1.78a24.93,24.93,0,0,1-.31,3.33,31.55,31.55,0,0,0-.3,4.31v16.9a36.27,36.27,0,0,0,.61,8,2.83,2.83,0,0,0,1.15.89,11.53,11.53,0,0,0,2.12.89,6.55,6.55,0,0,0,1.59.36c.18,0,.28.41.31,1.24a4.78,4.78,0,0,1-.13,1.69l-5.57-.35q-2.82-.18-4.68-.18-2.74,0-5.61.18C528.88,107.49,527.28,107.61,526,107.73Zm9.72-48.64a5.16,5.16,0,0,1-3.8-1.6,5.24,5.24,0,0,1-1.59-3.82,5.07,5.07,0,0,1,1.59-3.78,5.24,5.24,0,0,1,3.8-1.56A5.31,5.31,0,0,1,541,53.67a5.32,5.32,0,0,1-1.55,3.82A5,5,0,0,1,535.7,59.09Z"></path><path class="cls-1" d="M547,108.25l-.36,0-5.57-.36c-1.87-.11-3.43-.17-4.65-.17-1.8,0-3.68.06-5.58.17s-3.53.24-4.8.36l-.24,0-.16-.17a2.83,2.83,0,0,1-.5-2c0-.52,0-1.74.85-1.74a5.91,5.91,0,0,0,1.71-.34,11.93,11.93,0,0,0,2.08-.85c.75-.39.86-.59.86-.59a25.24,25.24,0,0,0,.51-3.11,30.82,30.82,0,0,0,.18-3.33V81.77c0-2.65-.44-4.45-1.28-5.36a3.52,3.52,0,0,0-1.77-1.19,11.26,11.26,0,0,0-2-.43c-.54-.05-1.37-.13-1.37-.76,0-2,.14-3.17.94-3.17,1.79-.23,3.87-.57,6.13-1s4.32-.88,6.13-1.29l2.94-.72c1.11,0,1.11,1.71,1.11,2.28a25.92,25.92,0,0,1-.31,3.4,30.57,30.57,0,0,0-.31,4.24v16.9a36.28,36.28,0,0,0,.59,7.81,2.91,2.91,0,0,0,.92.64,10.57,10.57,0,0,0,2,.85,6.19,6.19,0,0,0,1.44.34c.75,0,.79,1,.81,1.72a5.32,5.32,0,0,1-.16,1.89Zm-20.8-3a3.21,3.21,0,0,0-.06.75,3.94,3.94,0,0,0,.12,1.17c1.23-.11,2.75-.22,4.52-.33,1.92-.12,3.82-.18,5.64-.18,1.24,0,2.82.06,4.72.18l5.14.33a7.65,7.65,0,0,0,0-1.15,4,4,0,0,0-.07-.78,8.63,8.63,0,0,1-1.47-.36,12.32,12.32,0,0,1-2.22-.93,3,3,0,0,1-1.35-1.11l0-.09a36,36,0,0,1-.63-8.13V77.76a31,31,0,0,1,.31-4.38,25.88,25.88,0,0,0,.31-3.26,2.9,2.9,0,0,0-.17-1.26l-2.66.67c-1.83.42-3.9.85-6.17,1.3s-4.27.77-6.1,1a7.27,7.27,0,0,0-.16,1.9l.47.06a12.14,12.14,0,0,1,2.21.46,4.47,4.47,0,0,1,2.24,1.5c1,1.09,1.52,3.06,1.52,6V96.08a32.7,32.7,0,0,1-.18,3.43,26.87,26.87,0,0,1-.54,3.27c-.1.41-.5.77-1.35,1.21a14,14,0,0,1-2.25.93A8,8,0,0,1,526.19,105.29Zm-.28-33.44h0Zm9.79-12.26a5.67,5.67,0,0,1-4.15-1.75,5.74,5.74,0,0,1-1.74-4.17,5.61,5.61,0,0,1,1.74-4.14,5.76,5.76,0,0,1,4.15-1.7,5.59,5.59,0,0,1,4.11,1.7,5.66,5.66,0,0,1,1.69,4.14,5.82,5.82,0,0,1-1.68,4.17A5.56,5.56,0,0,1,535.7,59.59Zm0-10.76a4.73,4.73,0,0,0-3.45,1.41,4.58,4.58,0,0,0-1.44,3.43,5,5,0,0,0,4.89,4.92,4.49,4.49,0,0,0,3.4-1.45,4.78,4.78,0,0,0,1.41-3.47,4.63,4.63,0,0,0-1.41-3.43A4.56,4.56,0,0,0,535.7,48.83Z"></path><path class="cls-1" d="M551.43,107.82a2.67,2.67,0,0,1-.35-1.69c0-.89.12-1.33.35-1.33a9.52,9.52,0,0,0,2-.31,15.23,15.23,0,0,0,2.39-.8c.73-.33,1.13-.61,1.19-.85a27.85,27.85,0,0,0,.62-6.49V81.85q0-4-1.42-5.69a3.74,3.74,0,0,0-2-1.29c-.8-.2-1.49-.35-2.08-.44s-.88-.22-.88-.4c0-1.66.14-2.55.44-2.67,1.35-.12,3.34-.41,6-.89s5.08-1,7.38-1.6a4.48,4.48,0,0,1,.84-.22,6.93,6.93,0,0,1,.75-.13c.24,0,.44.2.62.62a2.64,2.64,0,0,1,.27,1q-.18,1.25-.27,2c-.06.53-.09.92-.09,1.16s.06.44.18.44.18-.09.35-.26a19.61,19.61,0,0,1,5.44-3.74,15.34,15.34,0,0,1,6.76-1.6q11.4,0,11.4,18.23v8.45a36.27,36.27,0,0,0,.61,8,2.82,2.82,0,0,0,1.29.85,14.77,14.77,0,0,0,2.38.8,9.53,9.53,0,0,0,1.81.31c.18,0,.28.43.31,1.29a5,5,0,0,1-.13,1.73,23.9,23.9,0,0,0-2.43-.22l-4.51-.27c-1.62-.09-2.9-.13-3.84-.13s-2.17,0-3.67.13l-4.24.27c-1.32.09-2.16.16-2.52.22a2.67,2.67,0,0,1-.35-1.69c0-.89.12-1.33.35-1.33a7.9,7.9,0,0,0,1.86-.31,13.53,13.53,0,0,0,2.16-.8c.68-.33,1-.61,1.11-.85a21.33,21.33,0,0,0,.53-2.93,32.32,32.32,0,0,0,.17-3.56V87.9q0-7.38-2-10.31t-6.32-2.94a8.11,8.11,0,0,0-5,1.56c-1.41,1-2.12,2.15-2.12,3.33v15.3a35.5,35.5,0,0,0,.62,8c.11.24.53.52,1.23.85a14.14,14.14,0,0,0,2.3.8,9.12,9.12,0,0,0,1.68.31c.24,0,.37.43.4,1.29a5.25,5.25,0,0,1-.13,1.73c-.3-.06-1.14-.13-2.52-.22l-4.38-.27c-1.53-.09-2.77-.13-3.71-.13s-2.21,0-3.8.13l-4.46.27C552.65,107.69,551.79,107.76,551.43,107.82Z"></path><path class="cls-1" d="M597.86,108.41l-.42-.11a21.45,21.45,0,0,0-2.34-.2l-4.5-.27c-1.6-.09-2.89-.13-3.82-.13s-2.16,0-3.64.13l-4.24.27c-1.31.08-2.14.16-2.47.21l-.25,0-.18-.19a2.86,2.86,0,0,1-.5-2c0-.59,0-1.83.85-1.83a6.87,6.87,0,0,0,1.73-.3,11,11,0,0,0,2.08-.77c.73-.35.84-.53.84-.54a19.31,19.31,0,0,0,.51-2.84,31.18,31.18,0,0,0,.18-3.5V87.9c0-4.79-.64-8.17-1.91-10s-3.17-2.72-5.9-2.72a7.71,7.71,0,0,0-4.66,1.46,3.83,3.83,0,0,0-1.91,2.93v15.3a36.34,36.34,0,0,0,.58,7.8,3.35,3.35,0,0,0,1,.59,12.51,12.51,0,0,0,2.21.77,7.71,7.71,0,0,0,1.56.3c.83,0,.88,1.19.9,1.77a5.2,5.2,0,0,1-.17,1.93l-.16.39-.4-.08c-.19,0-.76-.1-2.46-.21l-4.37-.27c-1.51-.09-2.74-.13-3.68-.13s-2.2,0-3.77.13l-4.46.27c-1.36.08-2.23.16-2.55.21l-.26,0-.18-.19a2.83,2.83,0,0,1-.5-2c0-.59,0-1.83.85-1.83a8.42,8.42,0,0,0,1.87-.3,13.79,13.79,0,0,0,2.3-.77c.8-.35.92-.54.93-.55a27.49,27.49,0,0,0,.59-6.33V81.85c0-2.53-.44-4.34-1.3-5.37a3.21,3.21,0,0,0-1.73-1.12,20.09,20.09,0,0,0-2-.44c-.4-.06-1.31-.19-1.31-.89,0-2.36.27-2.94.75-3.13l.14,0c1.34-.11,3.33-.41,5.92-.88s5-1,7.3-1.58a9.53,9.53,0,0,1,1.76-.38c.45,0,.82.31,1.08.92a3.08,3.08,0,0,1,.3,1.18c-.12.89-.21,1.57-.26,2.1,0,.22,0,.41-.06.58a20.75,20.75,0,0,1,5.22-3.49,16,16,0,0,1,7-1.65c7.89,0,11.9,6.3,11.9,18.73v8.45a36.4,36.4,0,0,0,.58,7.8,3.27,3.27,0,0,0,1,.59,14.1,14.1,0,0,0,2.3.77,7.94,7.94,0,0,0,1.69.3c.75,0,.79,1.06.81,1.77A5.52,5.52,0,0,1,598,108Zm-46.22-3.12a4,4,0,0,0-.06.84,3.87,3.87,0,0,0,.12,1.15c.46,0,1.21-.11,2.31-.18l4.46-.27c1.59-.09,2.88-.13,3.83-.13s2.21,0,3.74.13l4.38.27c1.1.07,1.73.12,2.1.16a9.45,9.45,0,0,0,0-1.16,4.1,4.1,0,0,0-.09-.81,11.33,11.33,0,0,1-1.61-.32,13.08,13.08,0,0,1-2.38-.83,2.94,2.94,0,0,1-1.48-1.08l0-.09a36.59,36.59,0,0,1-.63-8.13V79.54a4.75,4.75,0,0,1,2.32-3.73,8.69,8.69,0,0,1,5.25-1.66c3,0,5.31,1.06,6.73,3.16s2.07,5.52,2.07,10.59v8.45a33.25,33.25,0,0,1-.18,3.61,20.79,20.79,0,0,1-.54,3c-.1.4-.51.75-1.37,1.17a14.67,14.67,0,0,1-2.25.83,8.43,8.43,0,0,1-1.78.32,4,4,0,0,0-.06.84,3.87,3.87,0,0,0,.12,1.15c.45,0,1.17-.11,2.22-.18l4.24-.27c1.5-.09,2.75-.13,3.7-.13s2.25,0,3.87.13l4.51.27c1,.07,1.65.12,2,.16a7.75,7.75,0,0,0,0-1.16,4.61,4.61,0,0,0-.07-.82,10.57,10.57,0,0,1-1.67-.31,14.62,14.62,0,0,1-2.47-.83,2.94,2.94,0,0,1-1.52-1.08l0-.1a35.82,35.82,0,0,1-.63-8.12V86.39c0-11.93-3.57-17.73-10.9-17.73a15,15,0,0,0-6.55,1.55,19.11,19.11,0,0,0-5.29,3.64c-.26.25-.46.41-.71.41s-.68-.09-.68-.94a12,12,0,0,1,.09-1.21q.09-.81.27-2.07a2.62,2.62,0,0,0-.23-.71.91.91,0,0,0-.2-.33,5.41,5.41,0,0,1-.61.14,3.46,3.46,0,0,0-.72.18l-.09,0c-2.3.59-4.79,1.13-7.42,1.6s-4.45.75-5.81.88a7.17,7.17,0,0,0-.18,2c.08,0,.22.06.45.1a20.66,20.66,0,0,1,2.13.45,4.24,4.24,0,0,1,2.25,1.46c1,1.22,1.53,3.19,1.53,6v14.5a28.34,28.34,0,0,1-.64,6.61c-.1.42-.54.77-1.47,1.18a14.33,14.33,0,0,1-2.47.83A10.23,10.23,0,0,1,551.64,105.29Z"></path><path class="cls-1" d="M612.67,108.09a10.49,10.49,0,0,1-7.2-2.45,9,9,0,0,1-.88-12,15.13,15.13,0,0,1,5.34-4.09q1.25-.61,2.25-1l1.91-.76q3.09-1,5.16-1.6l3-.89a1.49,1.49,0,0,0,.8-1.42V78.92A7.69,7.69,0,0,0,621.6,74a4.6,4.6,0,0,0-3.8-1.78,5.34,5.34,0,0,0-4.16,1.65,6.66,6.66,0,0,0-1.5,4.66,2.91,2.91,0,0,1-1.32,2.63,5.53,5.53,0,0,1-3,.84q-3.27,0-4.59-2.13a7,7,0,0,1,1.59-4.23A16.41,16.41,0,0,1,609,71.9a24.08,24.08,0,0,1,5.79-2.72,20.72,20.72,0,0,1,6.36-1q5.49,0,8.22,2.89T632.11,81V98.48q0,3.64,2.92,3.65a5.51,5.51,0,0,0,3-1.16c.36.06.53.39.53,1a5.55,5.55,0,0,1-.53,2.67,21.86,21.86,0,0,1-3.53,2.22,9.2,9.2,0,0,1-4.24,1.16,6.46,6.46,0,0,1-4-1.51,7.29,7.29,0,0,1-2.56-3.29c-.48.41-.83.71-1.06.89s-.62.47-1.15.88a23.54,23.54,0,0,1-4.07,2.18A12,12,0,0,1,612.67,108.09Zm4.51-5.78a6.84,6.84,0,0,0,4.11-1.25A3.51,3.51,0,0,0,623,98.22V89.15l-5.66,1.95a17.11,17.11,0,0,0-3.62,2.14,4.24,4.24,0,0,0-1.59,3.55,5.51,5.51,0,0,0,1.41,4.18A5.09,5.09,0,0,0,617.18,102.31Z"></path><path class="cls-1" d="M612.67,108.59a11.05,11.05,0,0,1-7.53-2.57,9.53,9.53,0,0,1-.95-12.74,15.92,15.92,0,0,1,5.52-4.23c.84-.42,1.61-.77,2.29-1l1.9-.75c2.1-.66,3.82-1.2,5.21-1.62l2.9-.87a1,1,0,0,0,.5-1V78.92a7.25,7.25,0,0,0-1.3-4.58,4.11,4.11,0,0,0-3.41-1.59A4.82,4.82,0,0,0,614,74.23a6.25,6.25,0,0,0-1.37,4.33,3.36,3.36,0,0,1-1.56,3,6,6,0,0,1-3.27.92c-2.35,0-4-.8-5-2.37l-.07-.12V79.9a7.48,7.48,0,0,1,1.69-4.53,17.08,17.08,0,0,1,4.32-3.89,24.5,24.5,0,0,1,5.91-2.77,21.1,21.1,0,0,1,6.51-1c3.78,0,6.67,1,8.58,3s2.88,5.46,2.88,10.26V98.48c0,2.82,1.38,3.15,2.42,3.15a5.06,5.06,0,0,0,2.72-1.07l.17-.11.2,0c.35.06.94.33.94,1.47a6.18,6.18,0,0,1-.59,2.91l-.12.15a22.76,22.76,0,0,1-3.62,2.27c-3.12,1.63-6,1.72-8.76-.4a8.4,8.4,0,0,1-2.45-2.86c-.23.2-.42.35-.56.46l-1.14.89a24.88,24.88,0,0,1-4.18,2.24A12.63,12.63,0,0,1,612.67,108.59Zm5.13-36.84a5.09,5.09,0,0,1,4.19,2,8.17,8.17,0,0,1,1.52,5.2v4.89a2,2,0,0,1-1,1.86l-.27.09-2.79.84q-2.08.63-5.16,1.6l-1.87.74c-.65.26-1.4.6-2.21,1a14.73,14.73,0,0,0-5.18,4,8.49,8.49,0,0,0,.82,11.37,10.06,10.06,0,0,0,6.87,2.32,11.55,11.55,0,0,0,4.58-.9,23.5,23.5,0,0,0,4-2.13c.5-.4.89-.69,1.13-.87s.57-.46,1-.87l.56-.49.24.7a6.79,6.79,0,0,0,2.4,3.06c2.42,1.89,4.92,1.75,7.68.31a22.21,22.21,0,0,0,3.37-2.11,5.35,5.35,0,0,0,.42-2.34,1.26,1.26,0,0,0,0-.37,5.72,5.72,0,0,1-3,1c-1.56,0-3.42-.72-3.42-4.15V81c0-4.53-.87-7.75-2.6-9.58s-4.36-2.73-7.86-2.73a20.15,20.15,0,0,0-6.21,1,23.74,23.74,0,0,0-5.66,2.65A15.74,15.74,0,0,0,605.2,76a6.52,6.52,0,0,0-1.48,3.77c.8,1.2,2.14,1.78,4.09,1.78a5.08,5.08,0,0,0,2.74-.76,2.42,2.42,0,0,0,1.09-2.21,7.2,7.2,0,0,1,1.63-5A5.86,5.86,0,0,1,617.8,71.75Zm-.62,31.06a5.61,5.61,0,0,1-4-1.47,6,6,0,0,1-1.57-4.55,4.76,4.76,0,0,1,1.78-4,17.27,17.27,0,0,1,3.73-2.19l6.36-2.21v9.78a4,4,0,0,1-1.93,3.25A7.34,7.34,0,0,1,617.18,102.81Zm5.33-13-5,1.72A16.39,16.39,0,0,0,614,93.63a3.75,3.75,0,0,0-1.4,3.16,5.05,5.05,0,0,0,1.26,3.82,4.51,4.51,0,0,0,3.28,1.2,6.37,6.37,0,0,0,3.81-1.15,3,3,0,0,0,1.52-2.44Z"></path><path class="cls-1" d="M165.68,129.9a7.36,7.36,0,0,0-6.11,2.76,11.88,11.88,0,0,0-2.2,7.59,12.31,12.31,0,0,0,2,7.53c1.37,1.84,3.44,2.75,6.23,2.75a15.62,15.62,0,0,0,3.24-.32,26.56,26.56,0,0,0,3.16-.85v3.51a16.58,16.58,0,0,1-3.13.88,21.57,21.57,0,0,1-3.75.28,12,12,0,0,1-6.66-1.71,10.45,10.45,0,0,1-4-4.82,18.53,18.53,0,0,1-1.32-7.29,17,17,0,0,1,1.45-7.19,11.05,11.05,0,0,1,4.23-4.87,12.5,12.5,0,0,1,6.81-1.76,17.11,17.11,0,0,1,3.86.44,15.2,15.2,0,0,1,3.46,1.22l-1.46,3.39a22.49,22.49,0,0,0-2.77-1.07A10.09,10.09,0,0,0,165.68,129.9Z"></path><path class="cls-1" d="M179.37,127a2.49,2.49,0,0,1,1.54.5,2,2,0,0,1,.66,1.69,2,2,0,0,1-.66,1.66,2.39,2.39,0,0,1-1.54.52,2.43,2.43,0,0,1-1.59-.52,2,2,0,0,1-.64-1.66,2,2,0,0,1,.64-1.69A2.54,2.54,0,0,1,179.37,127Zm1.91,7.35v19.31H177.4V134.35Z"></path><path class="cls-1" d="M197.24,134c.34,0,.71,0,1.12,0s.75.08,1,.13l-.4,3.54a8.14,8.14,0,0,0-2-.25,5.57,5.57,0,0,0-2.76.72,5.37,5.37,0,0,0-2.09,2.06,6.27,6.27,0,0,0-.79,3.24v10.18H187.5V134.35h3.08l.51,3.43h.14a9.86,9.86,0,0,1,2.46-2.66A5.68,5.68,0,0,1,197.24,134Z"></path><path class="cls-1" d="M220.19,134.35v19.31h-3.11l-.55-2.55h-.18a5.56,5.56,0,0,1-2.64,2.21,9.25,9.25,0,0,1-3.55.7,7.59,7.59,0,0,1-5.31-1.69Q203,150.65,203,147V134.35h3.92v12.07q0,4.49,4,4.48c2,0,3.43-.59,4.21-1.76a9,9,0,0,0,1.17-5v-9.78Z"></path><path class="cls-1" d="M233.23,134a7,7,0,0,1,6,2.9h.18l.44-2.54H243v19.56q0,4.11-2.25,6.23t-6.87,2.12A24.8,24.8,0,0,1,230,162a14.73,14.73,0,0,1-3.28-.9v-3.33a17,17,0,0,0,7.43,1.51,5,5,0,0,0,3.74-1.35,5.18,5.18,0,0,0,1.31-3.78v-.64c0-.31,0-.72,0-1.22s.05-.88.07-1.15h-.14a6,6,0,0,1-2.49,2.21,8.16,8.16,0,0,1-3.44.7,7,7,0,0,1-5.84-2.64q-2.12-2.62-2.11-7.32a11.68,11.68,0,0,1,2.11-7.37A7,7,0,0,1,233.23,134Zm.8,3.15a4,4,0,0,0-3.53,1.79,9.11,9.11,0,0,0-1.23,5.16,8.88,8.88,0,0,0,1.23,5.12,4.1,4.1,0,0,0,3.6,1.76,5,5,0,0,0,4-1.45q1.26-1.46,1.26-4.75v-.71q0-3.69-1.28-5.31A4.86,4.86,0,0,0,234,137.14Z"></path><path class="cls-1" d="M257.32,126.57c-.37.43-.88,1-1.54,1.68s-1.37,1.38-2.13,2.05a24.09,24.09,0,0,1-2,1.64h-2.56v-.42c.36-.46.78-1,1.24-1.62s.92-1.26,1.36-1.91.8-1.25,1.1-1.78h4.54Zm-4.18,27.09h-3.88V134.35h3.88Z"></path><path class="cls-1" d="M267,134a8.31,8.31,0,0,1,5.54,1.59c1.24,1.07,1.85,2.73,1.85,5v13.08h-2.74L270.9,151h-.15a8.73,8.73,0,0,1-2.69,2.31,8.53,8.53,0,0,1-3.9.74,6.86,6.86,0,0,1-4.43-1.42,5.34,5.34,0,0,1-1.76-4.42,5.08,5.08,0,0,1,2.27-4.48q2.28-1.55,7-1.69l3.36-.1v-1.08a3.86,3.86,0,0,0-1-3,4,4,0,0,0-2.79-.88,9.63,9.63,0,0,0-2.89.43,19.46,19.46,0,0,0-2.67,1L260,135.67a15.8,15.8,0,0,1,3.21-1.2A14.74,14.74,0,0,1,267,134Zm.91,10.46c-2.24.1-3.8.46-4.67,1.09a3.14,3.14,0,0,0-1.3,2.67,2.57,2.57,0,0,0,.92,2.19,3.9,3.9,0,0,0,2.38.68,5.74,5.74,0,0,0,3.79-1.26,4.59,4.59,0,0,0,1.52-3.76v-1.68Z"></path><path class="cls-1" d="M290.63,153.66V128.08h3.95v22.25h11.17v3.33Z"></path><path class="cls-1" d="M317.61,134a8.33,8.33,0,0,1,5.55,1.59,6.28,6.28,0,0,1,1.85,5v13.08h-2.75l-.77-2.69h-.14a8.87,8.87,0,0,1-2.7,2.31,8.49,8.49,0,0,1-3.89.74,6.84,6.84,0,0,1-4.43-1.42,5.31,5.31,0,0,1-1.76-4.42,5.05,5.05,0,0,1,2.27-4.48q2.27-1.55,7-1.69l3.37-.1v-1.08a3.83,3.83,0,0,0-1-3,4,4,0,0,0-2.78-.88,9.58,9.58,0,0,0-2.89.43,20.1,20.1,0,0,0-2.68,1l-1.24-2.76a15.71,15.71,0,0,1,3.2-1.2A14.74,14.74,0,0,1,317.61,134Zm.92,10.46c-2.25.1-3.81.46-4.67,1.09a3.11,3.11,0,0,0-1.3,2.67,2.56,2.56,0,0,0,.91,2.19,3.92,3.92,0,0,0,2.38.68,5.72,5.72,0,0,0,3.79-1.26,4.57,4.57,0,0,0,1.52-3.76v-1.68Z"></path><path class="cls-1" d="M344.23,148.21a4.94,4.94,0,0,1-2.13,4.32,10.14,10.14,0,0,1-5.89,1.49,18.23,18.23,0,0,1-3.57-.31,12,12,0,0,1-2.73-.88V149.5a18.4,18.4,0,0,0,3,1.09,12.35,12.35,0,0,0,3.39.49,5.72,5.72,0,0,0,3.17-.68,2.16,2.16,0,0,0,1-1.83,2,2,0,0,0-.37-1.16,4.11,4.11,0,0,0-1.37-1.08,23.4,23.4,0,0,0-3-1.27,25.2,25.2,0,0,1-3.2-1.49,5.76,5.76,0,0,1-2-1.75,4.62,4.62,0,0,1-.69-2.64,4.32,4.32,0,0,1,2.06-3.85,10,10,0,0,1,5.48-1.34,15.3,15.3,0,0,1,3.38.36,17,17,0,0,1,3.1,1l-1.28,2.9a22.23,22.23,0,0,0-2.64-.91,10.25,10.25,0,0,0-2.75-.38,5.33,5.33,0,0,0-2.67.54,1.66,1.66,0,0,0-.91,1.5,1.72,1.72,0,0,0,.44,1.19,4.58,4.58,0,0,0,1.48,1c.69.33,1.65.74,2.87,1.22a23.7,23.7,0,0,1,3.13,1.39,5.43,5.43,0,0,1,2,1.76A4.78,4.78,0,0,1,344.23,148.21Z"></path><path class="cls-1" d="M351,127a2.49,2.49,0,0,1,1.54.5,2,2,0,0,1,.66,1.69,2,2,0,0,1-.66,1.66,2.39,2.39,0,0,1-1.54.52,2.43,2.43,0,0,1-1.59-.52,2,2,0,0,1-.64-1.66,2,2,0,0,1,.64-1.69A2.54,2.54,0,0,1,351,127Zm1.91,7.35v19.31H349V134.35Z"></path><path class="cls-1" d="M362.93,140c0,.48,0,1.05-.07,1.72s-.09,1.27-.11,1.79h.11c.27-.35.64-.83,1.12-1.41s.89-1.07,1.26-1.45l6-6.34h4.5l-7.94,8.27,8.46,11h-4.58L365.2,145l-2.27,1.87v6.77h-3.84V126.43h3.84Z"></path><path class="cls-2" d="M388.82,140.58a4.42,4.42,0,1,1,7.5,3.65,4.91,4.91,0,0,1-6.24,0A4.63,4.63,0,0,1,388.82,140.58Z"></path><path class="cls-1" d="M436.44,140.18a18.15,18.15,0,0,1-1.35,7.28A10.62,10.62,0,0,1,431,152.3a12.26,12.26,0,0,1-6.74,1.73,12.46,12.46,0,0,1-6.85-1.73,10.38,10.38,0,0,1-4-4.86,18.62,18.62,0,0,1-1.32-7.3,17.94,17.94,0,0,1,1.34-7.23,10.46,10.46,0,0,1,4-4.82,12.46,12.46,0,0,1,6.85-1.73,12.33,12.33,0,0,1,6.72,1.71,10.54,10.54,0,0,1,4,4.82A18.17,18.17,0,0,1,436.44,140.18Zm-20.17,0a13.11,13.11,0,0,0,1.94,7.6c1.3,1.86,3.32,2.79,6.08,2.79s4.81-.93,6.08-2.79a13.27,13.27,0,0,0,1.9-7.6,13.26,13.26,0,0,0-1.88-7.57c-1.26-1.84-3.28-2.75-6.06-2.75s-4.82.91-6.12,2.75A13,13,0,0,0,416.27,140.18Z"></path><path class="cls-1" d="M451.45,137.25h-4.86v16.41H442.7V137.25h-3.33v-1.79l3.33-1.19v-1.21q0-3.69,1.74-5.25a7,7,0,0,1,4.85-1.56,12.15,12.15,0,0,1,2.35.21,15.62,15.62,0,0,1,1.79.47l-1,2.9c-.41-.12-.87-.23-1.37-.34a7.39,7.39,0,0,0-1.59-.16q-2.89,0-2.89,3.76v1.26h4.86Z"></path><path class="cls-1" d="M462.14,150.94a10.74,10.74,0,0,0,1.58-.13,7.25,7.25,0,0,0,1.39-.34v2.87a8.23,8.23,0,0,1-1.7.48,11.51,11.51,0,0,1-2.11.2,7.91,7.91,0,0,1-3-.54,4.32,4.32,0,0,1-2.15-1.86,7.34,7.34,0,0,1-.78-3.69V137.25h-2.75v-1.72l2.89-1.44,1.36-4.08h2.38v4.34h5.64v2.9h-5.64v10.6a3.07,3.07,0,0,0,.79,2.33A2.86,2.86,0,0,0,462.14,150.94Z"></path><path class="cls-1" d="M476.86,134a8.33,8.33,0,0,1,5.55,1.59,6.28,6.28,0,0,1,1.85,5v13.08h-2.75l-.77-2.69h-.14a8.87,8.87,0,0,1-2.7,2.31A8.49,8.49,0,0,1,474,154a6.84,6.84,0,0,1-4.43-1.42,5.31,5.31,0,0,1-1.76-4.42,5.05,5.05,0,0,1,2.27-4.48q2.27-1.55,7-1.69l3.37-.1v-1.08a3.83,3.83,0,0,0-1-3,4,4,0,0,0-2.78-.88,9.58,9.58,0,0,0-2.89.43,20.1,20.1,0,0,0-2.68,1l-1.24-2.76a15.71,15.71,0,0,1,3.2-1.2A14.74,14.74,0,0,1,476.86,134Zm.92,10.46c-2.25.1-3.81.46-4.67,1.09a3.11,3.11,0,0,0-1.3,2.67,2.56,2.56,0,0,0,.91,2.19,3.92,3.92,0,0,0,2.38.68,5.72,5.72,0,0,0,3.79-1.26,4.57,4.57,0,0,0,1.52-3.76v-1.68Z"></path><path class="cls-1" d="M494.25,153.66h-3.88V126.43h3.88Z"></path><path class="cls-1" d="M522.59,134a6.8,6.8,0,0,1,5,1.68c1.12,1.12,1.69,2.93,1.69,5.41v12.58H525.4V141.58c0-3-1.23-4.48-3.69-4.48a4.3,4.3,0,0,0-3.77,1.6,7.77,7.77,0,0,0-1.14,4.57v10.39H513V141.58c0-3-1.25-4.48-3.74-4.48-1.85,0-3.13.59-3.82,1.76a9.92,9.92,0,0,0-1,5v9.75h-3.88V134.35h3.08l.55,2.58h.22a5.3,5.3,0,0,1,2.45-2.23,8.06,8.06,0,0,1,3.33-.71q4.57,0,6,3.11h.29a5.68,5.68,0,0,1,2.63-2.36A8.68,8.68,0,0,1,522.59,134Z"></path><path class="cls-1" d="M552.75,144q0,4.82-2.52,7.42a9.06,9.06,0,0,1-6.81,2.62,9.32,9.32,0,0,1-4.74-1.19,8.29,8.29,0,0,1-3.26-3.42,11.35,11.35,0,0,1-1.19-5.43c0-3.2.83-5.66,2.49-7.4a9,9,0,0,1,6.81-2.59,9.6,9.6,0,0,1,4.77,1.16,8.27,8.27,0,0,1,3.26,3.39A11.31,11.31,0,0,1,552.75,144Zm-14.53,0a8.87,8.87,0,0,0,1.26,5.09,5.31,5.31,0,0,0,8,0,8.87,8.87,0,0,0,1.26-5.09,8.56,8.56,0,0,0-1.28-5.07,4.64,4.64,0,0,0-4-1.77,4.54,4.54,0,0,0-4,1.77A8.79,8.79,0,0,0,538.22,144Z"></path><path class="cls-1" d="M561.68,153.66H557.8V126.43h3.88Z"></path><path class="cls-1" d="M585.3,144q0,4.82-2.53,7.42A9,9,0,0,1,576,154a9.37,9.37,0,0,1-4.74-1.19,8.35,8.35,0,0,1-3.26-3.42,11.46,11.46,0,0,1-1.19-5.43c0-3.2.83-5.66,2.49-7.4a9,9,0,0,1,6.81-2.59,9.64,9.64,0,0,1,4.78,1.16,8.33,8.33,0,0,1,3.26,3.39A11.42,11.42,0,0,1,585.3,144Zm-14.54,0a8.79,8.79,0,0,0,1.27,5.09,5.3,5.3,0,0,0,8,0,8.79,8.79,0,0,0,1.27-5.09,8.63,8.63,0,0,0-1.28-5.07,4.65,4.65,0,0,0-4-1.77,4.54,4.54,0,0,0-4,1.77A8.79,8.79,0,0,0,570.76,144Z"></path><path class="cls-1" d="M597.16,134a7,7,0,0,1,6,2.9h.18l.44-2.54H607v19.56q0,4.11-2.25,6.23t-6.86,2.12a24.93,24.93,0,0,1-3.94-.29,14.88,14.88,0,0,1-3.28-.9v-3.33a17,17,0,0,0,7.44,1.51,5,5,0,0,0,3.73-1.35,5.15,5.15,0,0,0,1.32-3.78v-.64c0-.31,0-.72,0-1.22s.05-.88.08-1.15h-.15a6,6,0,0,1-2.49,2.21,8.16,8.16,0,0,1-3.44.7,7,7,0,0,1-5.84-2.64,11.43,11.43,0,0,1-2.11-7.32,11.74,11.74,0,0,1,2.11-7.37A7,7,0,0,1,597.16,134Zm.8,3.15a4,4,0,0,0-3.53,1.79,9.11,9.11,0,0,0-1.22,5.16,8.88,8.88,0,0,0,1.22,5.12A4.1,4.1,0,0,0,598,151a5,5,0,0,0,4-1.45q1.26-1.46,1.26-4.75v-.71c0-2.46-.42-4.23-1.28-5.31A4.83,4.83,0,0,0,598,137.14Z"></path><path class="cls-1" d="M621.25,126.57c-.37.43-.88,1-1.54,1.68s-1.37,1.38-2.12,2.05a25.79,25.79,0,0,1-2,1.64H613v-.42c.37-.46.78-1,1.25-1.62s.91-1.26,1.35-1.91.81-1.25,1.1-1.78h4.54Zm-4.18,27.09h-3.88V134.35h3.88Z"></path><path class="cls-1" d="M631,134a8.33,8.33,0,0,1,5.55,1.59c1.23,1.07,1.84,2.73,1.84,5v13.08H635.6l-.77-2.69h-.15a8.73,8.73,0,0,1-2.69,2.31,8.53,8.53,0,0,1-3.9.74,6.88,6.88,0,0,1-4.43-1.42,5.34,5.34,0,0,1-1.75-4.42,5.05,5.05,0,0,1,2.27-4.48q2.27-1.55,7-1.69l3.37-.1v-1.08a3.83,3.83,0,0,0-1-3,4,4,0,0,0-2.78-.88,9.58,9.58,0,0,0-2.89.43,20.1,20.1,0,0,0-2.68,1L624,135.67a15.48,15.48,0,0,1,3.2-1.2A14.74,14.74,0,0,1,631,134Zm.92,10.46c-2.25.1-3.81.46-4.67,1.09a3.11,3.11,0,0,0-1.3,2.67,2.56,2.56,0,0,0,.91,2.19,3.92,3.92,0,0,0,2.38.68,5.72,5.72,0,0,0,3.79-1.26,4.59,4.59,0,0,0,1.52-3.76v-1.68Z"></path><path class="cls-1" d="M143.67,116.93a47.45,47.45,0,0,1-1.13,6.87c-.77,3.62-1.65,7.55-2.66,11.82-.09.36-.17.73-.27,1.1a27.87,27.87,0,0,1-3.09,7.55l-.25.42c-7.56,13-34.21,16.33-47.62,17.21l-.34,0c-2.43.13-4.92.23-7.47.28h0c-1.76,0-3.56.06-5.39.06A78,78,0,0,1,44.2,156a84,84,0,0,1-25.66-17.11A78.27,78.27,0,0,1,1.23,113.68c-.2-.47-.39-.93-.59-1.39a8.53,8.53,0,0,1,1-8.25L14.76,85.81a8,8,0,0,0,0-9.36L2.34,59.21a8.39,8.39,0,0,1-1-8.17l0,0a82.23,82.23,0,0,1,17.7-26.52,83.52,83.52,0,0,1,26.53-18A81.85,81.85,0,0,1,78.2,0L81,0c2.17,0,4.37.07,6.56.16A85.88,85.88,0,0,1,131.75,16c2.52,1.81,5.2,3.37,7.58,5.34.18,4.64.37,9,.55,13,.16,3.69.25,6.18.25,7.47q0,3.61-6.06,3.61a7.26,7.26,0,0,1-3.54-1,32.8,32.8,0,0,0-3.67-8.91,61.43,61.43,0,0,0-8-10.37q-5.3-5.79-15.66-9.52a70.73,70.73,0,0,0-24-3.74q-16.42,0-28.18,9a53.8,53.8,0,0,0-8.62,8.31,60.63,60.63,0,0,0-9.33,15.69,85.91,85.91,0,0,0-6.19,33.26q0,20.27,7,36.65a65.85,65.85,0,0,0,7.92,13.88,58.26,58.26,0,0,0,12.42,12.27q13.41,9.78,32.11,9.77,22.24,0,35.64-13.5a29,29,0,0,0,6.2-9.28q2.15-5.19,3.41-9.17c.84-2.64,1.6-4,2.28-4Q142.66,114.76,143.67,116.93Z"></path><path class="cls-1" d="M133.82,114.76c-.68,0-1.44,1.33-2.28,4s-2,5.71-3.41,9.17a29,29,0,0,1-6.2,9.28q-13.41,13.5-35.64,13.5-18.72,0-32.11-9.77a58.26,58.26,0,0,1-12.42-12.27,65.85,65.85,0,0,1-7.92-13.88q-6.95-16.38-7-36.65a85.91,85.91,0,0,1,6.19-33.26,60.63,60.63,0,0,1,9.33-15.69A53.8,53.8,0,0,1,51,20.85q11.74-9,28.18-9a70.73,70.73,0,0,1,24,3.74q10.35,3.74,15.66,9.52a61.43,61.43,0,0,1,8,10.37,32.8,32.8,0,0,1,3.67,8.91,7.26,7.26,0,0,0,3.54,1q6.06,0,6.06-3.61c0-1.29-.09-3.78-.25-7.47-.18-4-.37-8.31-.55-13-2.38-2-5.06-3.53-7.58-5.34A85.88,85.88,0,0,0,87.6.18C85.41.09,83.21,0,81,0L78.2,0A81.85,81.85,0,0,0,45.59,6.51a83.52,83.52,0,0,0-26.53,18A82.23,82.23,0,0,0,1.36,51l0,0a8.39,8.39,0,0,0,1,8.17L14.76,76.45a8,8,0,0,1,0,9.36L1.62,104a8.53,8.53,0,0,0-1,8.25c.2.46.39.92.59,1.39a78.27,78.27,0,0,0,17.31,25.19A84,84,0,0,0,44.2,156a78,78,0,0,0,31.22,6.28c1.83,0,3.63,0,5.39-.06h0c2.55,0,5-.15,7.47-.28l.34,0c13.41-.88,40.06-4.23,47.62-17.21l.25-.42a27.87,27.87,0,0,0,3.09-7.55c.1-.37.18-.74.27-1.1,1-4.27,1.89-8.2,2.66-11.82a47.45,47.45,0,0,0,1.13-6.87Q142.67,114.77,133.82,114.76Z"></path><path class="cls-2" d="M58.16,75.58c0,16.77-4.95,32.37-8.84,42.56a2.65,2.65,0,0,1-4.81.31q-1.4-2.67-2.57-5.56c-4.21-10.28-6.34-22-6.34-34.78a84.34,84.34,0,0,1,5.62-31.43,59.89,59.89,0,0,1,3.93-8.08,2.66,2.66,0,0,1,4.73.32C53.59,47.7,58.16,59.69,58.16,75.58Z"></path></g></g></svg> 